<?xml version="1.0" standalone="no"?>
<svg
  width="600"
  height="600"
  viewBox="0 0 600 600"
  xmlns="http://www.w3.org/2000/svg"
>
  <g transform="translate(300,300)">
    <path d="M137.9,-170C166.2,-140.7,167.8,-85.3,145.7,-49.5C123.6,-13.7,77.8,2.4,63.4,45.4C49.1,88.4,66.1,158.4,45.9,196.2C25.7,234,-31.8,239.6,-62,211C-92.1,182.3,-95,119.4,-122.6,71C-150.3,22.7,-202.7,-11.1,-193.2,-28.7C-183.8,-46.3,-112.4,-47.7,-69.9,-74.5C-27.4,-101.4,-13.7,-153.7,20.6,-178.2C54.9,-202.7,109.7,-199.4,137.9,-170Z" fill="#3ca186" />
  </g>
</svg>
    